<?xml version="1.0" encoding="UTF-8" standalone="no"?>
<!-- Uploaded to: SVG Repo, www.svgrepo.com, Generator: SVG Repo Mixer Tools -->

<svg
   fill="#000000"
   height="800"
   width="799.99463"
   version="1.1"
   id="Layer_1"
   viewBox="0 0 299.99499 299.997"
   xml:space="preserve"
   xmlns="http://www.w3.org/2000/svg"
   xmlns:svg="http://www.w3.org/2000/svg"><defs
   id="defs2" />
<g
   id="g2"
   style="fill:#f5deb3;fill-opacity:1"
   transform="translate(-0.001)">
	<g
   id="g1"
   style="fill:#f5deb3;fill-opacity:1">
		<path
   d="M 149.996,0 C 67.157,0 0.001,67.158 0.001,149.997 c 0,82.837 67.156,150 149.995,150 82.839,0 150,-67.163 150,-150 C 299.996,67.158 232.835,0 149.996,0 Z m 0.003,52.686 88.763,55.35 H 61.236 Z m 89.869,143.737 h -0.009 c 0,8.878 -7.195,16.072 -16.072,16.072 H 76.211 c -8.878,0 -16.072,-7.195 -16.072,-16.072 v -84.865 c 0,-0.939 0.096,-1.852 0.252,-2.749 l 84.808,52.883 c 0.104,0.065 0.215,0.109 0.322,0.169 0.112,0.062 0.226,0.122 0.34,0.179 0.599,0.309 1.216,0.558 1.847,0.721 0.065,0.018 0.13,0.026 0.195,0.041 0.692,0.163 1.393,0.265 2.093,0.265 h 0.005 c 0.005,0 0.01,0 0.01,0 0.7,0 1.401,-0.099 2.093,-0.265 0.065,-0.016 0.13,-0.023 0.195,-0.041 0.63,-0.163 1.245,-0.412 1.847,-0.721 0.114,-0.057 0.228,-0.117 0.34,-0.179 0.106,-0.06 0.218,-0.104 0.322,-0.169 l 84.808,-52.883 c 0.156,0.897 0.252,1.808 0.252,2.749 z"
   id="path1"
   style="fill:#f5deb3;fill-opacity:1" />
	</g>
</g>
</svg>
