<?xml version="1.0" encoding="UTF-8" standalone="no"?>
<svg
   width="78.561996"
   height="88.917999"
   id="javascript"
   version="1.1"
   xmlns="http://www.w3.org/2000/svg"
   xmlns:svg="http://www.w3.org/2000/svg">
  <defs
     id="defs5" />
  <path
     fill="#e6a329"
     d="M 78.562,4.7302246e-7 H 0 L 7.365,79.867 39.277,88.918 71.189,79.867 Z"
     id="path1" />
  <path
     fill="#f1bf22"
     d="M 39.277,6.5070005 V 82.15 l 25.856,-7.325 6.29,-68.3179995 z"
     id="path2" />
  <path
     fill="#ffffff"
     d="M 59.847,16.305 H 20.092 l -2.769,29.9 0.057,-0.186 h 33.774 l -1.1,12.651 -10.776,3.1 -10.935,-3.15 -0.655,-7.657 h -9.926 l 1.416,15.3 20.1,5.706 20.109,-5.706 2.769,-30.032 H 26.312 l 0.46,-10.006 h 24.869 l 0.372,5.733 h 10.01 z"
     id="path3" />
  <path
     fill="#ebebeb"
     d="M 39.286,16.305 H 20.092 l -2.769,29.9 0.057,-0.186 H 39.285 V 36.265 H 27.71 L 28.17,26.259 H 39.286 Z M 27.71,50.968 h -9.949 l 1.416,15.292 20.1,5.7 V 61.784 L 28.342,58.626 Z"
     id="path4" />
</svg>
