<?xml version="1.0" encoding="UTF-8" standalone="no"?>
<!-- Uploaded to: SVG Repo, www.svgrepo.com, Generator: SVG Repo Mixer Tools -->

<svg
   fill="#000000"
   width="768"
   height="768"
   viewBox="0 0 19.2 19.2"
   version="1.1"
   id="svg1"
   sodipodi:docname="linkedin-with-circle-svgrepo-com.svg"
   inkscape:export-filename="linkedin.png"
   inkscape:export-xdpi="96"
   inkscape:export-ydpi="96"
   xmlns:inkscape="http://www.inkscape.org/namespaces/inkscape"
   xmlns:sodipodi="http://sodipodi.sourceforge.net/DTD/sodipodi-0.dtd"
   xmlns="http://www.w3.org/2000/svg"
   xmlns:svg="http://www.w3.org/2000/svg">
  <defs
     id="defs1" />
  <sodipodi:namedview
     id="namedview1"
     pagecolor="#ffffff"
     bordercolor="#666666"
     borderopacity="1.0"
     inkscape:showpageshadow="2"
     inkscape:pageopacity="0.0"
     inkscape:pagecheckerboard="0"
     inkscape:deskcolor="#d1d1d1" />
  <path
     d="M 9.6,0 C 4.298,0 0,4.298 0,9.6 c 0,5.302 4.298,9.6 9.6,9.6 5.302,0 9.6,-4.298 9.6,-9.6 C 19.2,4.298 14.902,0 9.6,0 Z M 7.25,13.579 H 5.306 V 7.323 H 7.25 Z M 6.266,6.555 c -0.614,0 -1.011,-0.435 -1.011,-0.973 0,-0.549 0.409,-0.971 1.036,-0.971 0.627,0 1.011,0.422 1.023,0.971 0,0.538 -0.396,0.973 -1.048,0.973 z m 8.084,7.024 h -1.944 v -3.467 c 0,-0.807 -0.282,-1.355 -0.985,-1.355 -0.537,0 -0.856,0.371 -0.997,0.728 -0.052,0.127 -0.065,0.307 -0.065,0.486 v 3.607 H 8.414 V 9.318 C 8.414,8.537 8.389,7.884 8.363,7.322 h 1.689 l 0.089,0.869 h 0.039 c 0.256,-0.408 0.883,-1.01 1.932,-1.01 1.279,0 2.238,0.857 2.238,2.699 z"
     id="path1"
     style="fill:#f5deb3;fill-opacity:1" />
</svg>
